<mxfile host="app.diagrams.net" modified="2022-04-03T05:00:10.743Z" agent="5.0 (Macintosh; Intel Mac OS X 10_15_7) AppleWebKit/605.1.15 (KHTML, like Gecko) Version/15.4 Safari/605.1.15" etag="Q7oVrvgBTcAGWG9kIPX9" version="17.4.0" type="github">
  <diagram id="cjyhwheIi8SO1nBv0PdJ" name="Page-1">
    <mxGraphModel dx="888" dy="513" grid="1" gridSize="10" guides="1" tooltips="1" connect="1" arrows="1" fold="1" page="1" pageScale="1" pageWidth="850" pageHeight="1100" math="0" shadow="0">
      <root>
        <mxCell id="0" />
        <mxCell id="1" parent="0" />
        <mxCell id="3XXhpOHeEcnUFsxsqvhQ-1" value="&lt;span style=&quot;white-space: pre&quot;&gt;	Project&lt;br&gt;1. Image Puzzle&lt;br&gt;2. Dynamic Path Finding&lt;br/&gt;3. Find and Seek&lt;br&gt;&lt;/span&gt;" style="rounded=0;whiteSpace=wrap;html=1;spacingLeft=10;align=left;" vertex="1" parent="1">
          <mxGeometry x="80" y="120" width="200" height="90" as="geometry" />
        </mxCell>
        <mxCell id="3XXhpOHeEcnUFsxsqvhQ-8" value="" style="rounded=1;whiteSpace=wrap;html=1;fillColor=#808080;" vertex="1" parent="1">
          <mxGeometry x="400" y="120" width="600" height="70" as="geometry" />
        </mxCell>
        <mxCell id="3XXhpOHeEcnUFsxsqvhQ-9" value="" style="rounded=0;whiteSpace=wrap;html=1;fillColor=#000000;" vertex="1" parent="1">
          <mxGeometry x="400" y="150" width="600" height="400" as="geometry" />
        </mxCell>
        <mxCell id="3XXhpOHeEcnUFsxsqvhQ-10" value="" style="rounded=0;whiteSpace=wrap;html=1;fillColor=#1ba1e2;strokeColor=#006EAF;fontColor=#ffffff;" vertex="1" parent="1">
          <mxGeometry x="410" y="160" width="580" height="350" as="geometry" />
        </mxCell>
        <mxCell id="3XXhpOHeEcnUFsxsqvhQ-11" value="SFML" style="text;html=1;strokeColor=none;fillColor=none;align=center;verticalAlign=middle;whiteSpace=wrap;rounded=0;fontSize=15;" vertex="1" parent="1">
          <mxGeometry x="670" y="120" width="60" height="30" as="geometry" />
        </mxCell>
        <mxCell id="3XXhpOHeEcnUFsxsqvhQ-12" value="" style="ellipse;whiteSpace=wrap;html=1;aspect=fixed;fillColor=#60a917;fontColor=#ffffff;strokeColor=#2D7600;" vertex="1" parent="1">
          <mxGeometry x="410" y="125" width="15" height="15" as="geometry" />
        </mxCell>
        <mxCell id="3XXhpOHeEcnUFsxsqvhQ-13" value="" style="ellipse;whiteSpace=wrap;html=1;aspect=fixed;fillColor=#e3c800;fontColor=#000000;strokeColor=#B09500;" vertex="1" parent="1">
          <mxGeometry x="430" y="125" width="15" height="15" as="geometry" />
        </mxCell>
        <mxCell id="3XXhpOHeEcnUFsxsqvhQ-14" value="" style="ellipse;whiteSpace=wrap;html=1;aspect=fixed;fillColor=#e51400;fontColor=#ffffff;strokeColor=#B20000;" vertex="1" parent="1">
          <mxGeometry x="450" y="125" width="15" height="15" as="geometry" />
        </mxCell>
        <mxCell id="3XXhpOHeEcnUFsxsqvhQ-15" value="&lt;span style=&quot;white-space: pre&quot;&gt;	Components of Puzzle and Game:&lt;br&gt;Noun Verbs Object in an Environment under the Laws for Goal.&lt;br&gt;1. Noun=Player&lt;br&gt;2. Verbs=Operation/Algorithm&lt;br&gt;3. Object in an Environment=Object, Situation and/or Environment&lt;br&gt;4. Laws = Rules, Logical Rules, Physics and/or Limitation&lt;br&gt;5. Goal = Purpose/Achievement&lt;br&gt;&lt;br&gt;&lt;/span&gt;" style="rounded=0;whiteSpace=wrap;html=1;align=left;spacingLeft=10;" vertex="1" parent="1">
          <mxGeometry x="10" y="240" width="380" height="130" as="geometry" />
        </mxCell>
      </root>
    </mxGraphModel>
  </diagram>
</mxfile>
